<svg xmlns="http://www.w3.org/2000/svg" xml:space="preserve" width="800" height="800" viewBox="0 0 509.287 509.287"><circle cx="254.644" cy="254.644" r="254.644" style="fill:#f0582f"/><path d="M404.514 78.326h-299.74c-14.58 0-26.448 11.868-26.448 26.448v299.74c0 14.58 11.868 26.448 26.448 26.448h299.74c14.58 0 26.448-11.868 26.448-26.448v-299.74c0-14.581-11.868-26.448-26.448-26.448z" style="fill:#fcfcfd"/><path d="m249.219 263.121 83.751-84.091 65.102 65.102V107.825H111.216v167.841l75.274-75.274z" style="fill:#6eb1e1"/><path d="m332.97 179.03-83.751 84.091-62.729-62.729-75.274 75.274v74.935h286.856V244.132z" style="fill:#4f5565"/><circle cx="252.27" cy="166.485" r="25.091" style="fill:#fffffc"/></svg>
